0
SECTION
2
HEADER
9
$ACADVER
1
AC1009
0
ENDSEC
0
SECTION
2
TABLES
0
TABLE
2
LAYER
70
4
0
LAYER
2
0
70
0
62
7
6
CONTINUOUS
0
LAYER
2
WIRE
70
0
62
3
6
CONTINUOUS
0
LAYER
2
TEXT
70
0
62
5
6
CONTINUOUS
0
LAYER
2
FRAME
70
0
62
8
6
CONTINUOUS
0
ENDTAB
0
ENDSEC
0
SECTION
2
ENTITIES
0
LINE
8
FRAME
10
50.0000
20
50.0000
11
850.0000
21
50.0000
0
LINE
8
FRAME
10
850.0000
20
50.0000
11
850.0000
21
650.0000
0
LINE
8
FRAME
10
850.0000
20
650.0000
11
50.0000
21
650.0000
0
LINE
8
FRAME
10
50.0000
20
650.0000
11
50.0000
21
50.0000
0
TEXT
8
FRAME
10
400.0000
20
620.0000
40
8.0000
1
System Diagram - F1
0
LINE
8
0
10
80.0000
20
85.0000
11
120.0000
21
85.0000
0
LINE
8
0
10
120.0000
20
85.0000
11
120.0000
21
115.0000
0
LINE
8
0
10
120.0000
20
115.0000
11
80.0000
21
115.0000
0
LINE
8
0
10
80.0000
20
115.0000
11
80.0000
21
85.0000
0
TEXT
8
TEXT
10
85.0000
20
120.0000
40
5.0000
1
RRU信源 (20.0dBm)
0
LINE
8
0
10
285.0000
20
88.0000
11
315.0000
21
100.0000
0
LINE
8
0
10
315.0000
20
100.0000
11
285.0000
21
112.0000
0
LINE
8
0
10
285.0000
20
88.0000
11
285.0000
21
112.0000
0
TEXT
8
TEXT
10
285.0000
20
120.0000
40
4.0000
1
二功分器 (12.8dBm)
0
CIRCLE
8
0
10
500.0000
20
60.0000
40
12.0000
0
LINE
8
0
10
492.0000
20
60.0000
11
508.0000
21
60.0000
0
TEXT
8
TEXT
10
485.0000
20
80.0000
40
4.0000
1
全向吸顶天线 (11.9dBm)
0
CIRCLE
8
0
10
500.0000
20
140.0000
40
12.0000
0
LINE
8
0
10
492.0000
20
140.0000
11
508.0000
21
140.0000
0
TEXT
8
TEXT
10
485.0000
20
160.0000
40
4.0000
1
全向吸顶天线 (11.9dBm)
0
LINE
8
WIRE
10
100.0000
20
100.0000
11
300.0000
21
100.0000
0
TEXT
8
TEXT
10
200.0000
20
105.0000
40
3.0000
1
0.62dB
0
LINE
8
WIRE
10
300.0000
20
100.0000
11
500.0000
21
60.0000
0
TEXT
8
TEXT
10
400.0000
20
85.0000
40
3.0000
1
0.93dB
0
LINE
8
WIRE
10
300.0000
20
100.0000
11
500.0000
21
140.0000
0
TEXT
8
TEXT
10
400.0000
20
125.0000
40
3.0000
1
0.93dB
0
ENDSEC
0
EOF
