0
SECTION
2
HEADER
9
$ACADVER
1
AC1009
0
ENDSEC
0
SECTION
2
TABLES
0
TABLE
2
LAYER
70
3
0
LAYER
2
DEVICE
70
0
62
1
6
CONTINUOUS
0
LAYER
2
CABLE
70
0
62
3
6
CONTINUOUS
0
LAYER
2
WALL
70
0
62
8
6
CONTINUOUS
0
ENDTAB
0
ENDSEC
0
SECTION
2
ENTITIES
0
CIRCLE
8
DEVICE
10
50.0000
20
50.0000
40
8.0000
0
TEXT
8
DEVICE
10
60.0000
20
50.0000
40
4.0000
1
SRC_001
0
CIRCLE
8
DEVICE
10
150.0000
20
50.0000
40
8.0000
0
TEXT
8
DEVICE
10
160.0000
20
50.0000
40
4.0000
1
SPL_001
0
CIRCLE
8
DEVICE
10
250.0000
20
100.0000
40
8.0000
0
TEXT
8
DEVICE
10
260.0000
20
100.0000
40
4.0000
1
ANT_001
0
CIRCLE
8
DEVICE
10
250.0000
20
0.0000
40
8.0000
0
TEXT
8
DEVICE
10
260.0000
20
0.0000
40
4.0000
1
ANT_002
0
LINE
8
CABLE
10
50.0000
20
50.0000
11
150.0000
21
50.0000
0
LINE
8
CABLE
10
150.0000
20
50.0000
11
250.0000
21
100.0000
0
LINE
8
CABLE
10
150.0000
20
50.0000
11
250.0000
21
0.0000
0
ENDSEC
0
EOF
